# xmcd
# 
# Track frame offsets:
#     150
#     19795
#     44568
#     70969
#     89551
#     104213
#     123200
#     144978
#     158709
#     172997
#     188634
#     210289
#     230402
#     254204
#     269954
#     286643
#     298325
#     317798
# 
# Disc length: 4716
# 
# Revision: 2
# Processed by: cddbd v1.5.2PL0 Copyright (c) Steve Scherf et al.
# Submitted via: BonkEnc v1.0.6
# 
DISCID=18126a12
DTITLE=PÉPE MORENO - Risca Faca
DYEAR=2006
DGENRE=Forró
TTITLE0=Risca Faca
TTITLE1=Boca do Lixo
TTITLE2=Americana Quer Beber
TTITLE3=Fica Comigo Eu Te Amo Demais
TTITLE4=O Locutor
TTITLE5=Vem Ficar Comigo
TTITLE6=O Baguio É Louco
TTITLE7=Tereza
TTITLE8=Olhe O Xote ai
TTITLE9=Psiu
TTITLE10=Risca Faca(forró)
TTITLE11=Boca Do Lixo (Forro)
TTITLE12=Mina
TTITLE13=Pra Sempre Vou te Amar
TTITLE14=Livre,Leve e Solto
TTITLE15=Loirinha
TTITLE16=De Pai Para Filho
TTITLE17=Strip Forró
EXTD=
EXTT0=Risca Faca
EXTT1=
EXTT2=
EXTT3=
EXTT4=
EXTT5=
EXTT6=
EXTT7=
EXTT8=
EXTT9=
EXTT10=
EXTT11=
EXTT12=
EXTT13=
EXTT14=
EXTT15=
EXTT16=
EXTT17=
PLAYORDER=
